<svg width="301" height="62" viewBox="0 0 301 62" fill="none" xmlns="http://www.w3.org/2000/svg">
<path d="M11.64 43.52C10.0933 43.52 8.76 43.3067 7.64 42.88C6.54667 42.4267 5.50667 41.8267 4.52 41.08L2.88 43H1.76V34.6H2.92C3.24 35.9067 3.74667 37.1333 4.44 38.28C5.13333 39.4267 6.08 40.36 7.28 41.08C8.48 41.8 9.96 42.16 11.72 42.16C13.24 42.16 14.4933 41.9067 15.48 41.4C16.4933 40.8667 17.2533 40.1733 17.76 39.32C18.2667 38.44 18.52 37.5067 18.52 36.52C18.52 35.56 18.3067 34.76 17.88 34.12C17.4533 33.48 16.8667 32.96 16.12 32.56C15.4 32.16 14.5867 31.8267 13.68 31.56C12.8 31.2667 11.88 31 10.92 30.76C9.02667 30.3067 7.41333 29.68 6.08 28.88C4.77333 28.0533 3.77333 27.04 3.08 25.84C2.38667 24.6133 2.04 23.1333 2.04 21.4C2.04 19.4 2.46667 17.7467 3.32 16.44C4.2 15.1067 5.34667 14.1067 6.76 13.44C8.17333 12.7733 9.68 12.44 11.28 12.44C12.5333 12.44 13.6267 12.6133 14.56 12.96C15.52 13.3067 16.5067 13.84 17.52 14.56L18.84 12.84H19.96V21H18.88C18.16 18.4667 17.16 16.6267 15.88 15.48C14.6 14.3067 13.0267 13.72 11.16 13.72C10.04 13.72 9 13.9333 8.04 14.36C7.10667 14.76 6.36 15.32 5.8 16.04C5.24 16.7333 4.96 17.5467 4.96 18.48C4.96 19.3333 5.17333 20.04 5.6 20.6C6.02667 21.1333 6.58667 21.5733 7.28 21.92C8 22.2667 8.78667 22.56 9.64 22.8C10.52 23.04 11.4267 23.28 12.36 23.52C14.3333 24 15.9867 24.6533 17.32 25.48C18.6533 26.3067 19.6533 27.3867 20.32 28.72C21.0133 30.0267 21.36 31.6533 21.36 33.6C21.36 36.6933 20.52 39.12 18.84 40.88C17.16 42.64 14.76 43.52 11.64 43.52ZM23.4116 43V41.88H40.6116C42.0516 41.88 43.2516 41.4933 44.2116 40.72C45.1982 39.92 45.9582 38.88 46.4916 37.6C47.0516 36.32 47.3449 34.92 47.3716 33.4H48.8516V43H23.4116ZM27.6516 42.4V13.04H33.5316V42.4H27.6516ZM40.2116 34.36C40.1849 32.9733 39.9582 31.8667 39.5316 31.04C39.1049 30.1867 38.3982 29.5733 37.4116 29.2C36.4249 28.8267 35.0782 28.64 33.3716 28.64V27.52C35.0782 27.52 36.4249 27.3467 37.4116 27C38.4249 26.6533 39.1316 26.0933 39.5316 25.32C39.9582 24.52 40.1849 23.4667 40.2116 22.16H41.6916V34.36H40.2116ZM46.4516 20.92C46.4249 19.6667 46.1449 18.52 45.6116 17.48C45.1049 16.4133 44.3849 15.56 43.4516 14.92C42.5182 14.28 41.3849 13.96 40.0516 13.96H23.4116V12.84H47.9716V20.92H46.4516ZM51.185 43V41.88H68.385C69.825 41.88 71.025 41.4933 71.985 40.72C72.9717 39.92 73.7317 38.88 74.265 37.6C74.825 36.32 75.1183 34.92 75.145 33.4H76.625V43H51.185ZM55.425 42.4V13.04H61.305V42.4H55.425ZM67.985 34.36C67.9583 32.9733 67.7317 31.8667 67.305 31.04C66.8783 30.1867 66.1717 29.5733 65.185 29.2C64.1983 28.8267 62.8517 28.64 61.145 28.64V27.52C62.8517 27.52 64.1983 27.3467 65.185 27C66.1983 26.6533 66.905 26.0933 67.305 25.32C67.7317 24.52 67.9583 23.4667 67.985 22.16H69.465V34.36H67.985ZM74.225 20.92C74.1983 19.6667 73.9183 18.52 73.385 17.48C72.8783 16.4133 72.1583 15.56 71.225 14.92C70.2917 14.28 69.1583 13.96 67.825 13.96H51.185V12.84H75.745V20.92H74.225Z" fill="#7098DA"/>
<circle cx="120" cy="31" r="29.5" stroke="#7098DA" stroke-width="3"/>
<circle cx="109.896" cy="23.6518" r="16.6407" stroke="#7098DA" stroke-width="3"/>
<circle cx="114.948" cy="27.7853" r="9.29259" stroke="#7098DA" stroke-width="3"/>
<path d="M161.68 43V41.88H178.6C180.013 41.88 181.2 41.4933 182.16 40.72C183.147 39.92 183.907 38.88 184.44 37.6C185 36.32 185.293 34.92 185.32 33.4H186.8V43H161.68ZM165.92 42.4V12.84H171.76V42.4H165.92ZM161.68 13.96V12.84H176.56V13.96H161.68ZM207.237 42.4L199.877 21.4H199.717L199.477 20.08L201.797 12.44H202.917L213.357 42.4H207.237ZM187.197 43V41.88H196.877V43H187.197ZM194.637 34.2V33.12H208.037V34.2H194.637ZM202.637 43V41.88H216.437V43H202.637ZM190.677 42.4L201.797 12.44H202.917L200.637 19.04L191.997 42.4H190.677ZM220.993 43V41.88H226.073V13.96H223.593C222.233 13.9867 221.059 14.4133 220.073 15.24C219.113 16.04 218.366 17.0933 217.833 18.4C217.326 19.7067 217.046 21.12 216.993 22.64H215.513V12.84H242.353V22.64H240.873C240.846 21.0933 240.553 19.6667 239.993 18.36C239.459 17.0267 238.699 15.96 237.713 15.16C236.753 14.36 235.566 13.96 234.153 13.96H231.953V41.88H236.913V43H220.993ZM243.787 43V41.88H260.987C262.427 41.88 263.627 41.4933 264.587 40.72C265.573 39.92 266.333 38.88 266.867 37.6C267.427 36.32 267.72 34.92 267.747 33.4H269.227V43H243.787ZM248.027 42.4V13.04H253.907V42.4H248.027ZM260.587 34.36C260.56 32.9733 260.333 31.8667 259.907 31.04C259.48 30.1867 258.773 29.5733 257.787 29.2C256.8 28.8267 255.453 28.64 253.747 28.64V27.52C255.453 27.52 256.8 27.3467 257.787 27C258.8 26.6533 259.507 26.0933 259.907 25.32C260.333 24.52 260.56 23.4667 260.587 22.16H262.067V34.36H260.587ZM266.827 20.92C266.8 19.6667 266.52 18.52 265.987 17.48C265.48 16.4133 264.76 15.56 263.827 14.92C262.893 14.28 261.76 13.96 260.427 13.96H243.787V12.84H268.347V20.92H266.827ZM280.88 27.4V26.2H284.2C285.64 26.2 286.8 26.04 287.68 25.72C288.587 25.3733 289.24 24.7467 289.64 23.84C290.067 22.9067 290.28 21.56 290.28 19.8C290.28 18.1467 290.107 16.9067 289.76 16.08C289.413 15.2533 288.893 14.6933 288.2 14.4C287.507 14.1067 286.64 13.96 285.6 13.96H271.68V12.84H287.4C289.213 12.84 290.853 13.12 292.32 13.68C293.813 14.2133 295 14.9867 295.88 16C296.76 17.0133 297.2 18.2533 297.2 19.72C297.2 21.32 296.68 22.6933 295.64 23.84C294.6 24.9867 293.107 25.8667 291.16 26.48C289.24 27.0933 286.92 27.4 284.2 27.4H280.88ZM271.68 43V41.88H286.56V43H271.68ZM275.76 42.4V12.84H281.6V42.4H275.76ZM296.44 43C295.133 43 293.947 42.7467 292.88 42.24C291.813 41.7333 290.96 41.0267 290.32 40.12C289.707 39.1867 289.36 38.1067 289.28 36.88L289.12 33.12C289.04 31.1733 288.507 29.7333 287.52 28.8C286.533 27.8667 285.28 27.4 283.76 27.4L286.8 27.08H288.88V27.24C290.053 27.5067 291.187 28.0267 292.28 28.8C293.373 29.5733 294.267 30.5067 294.96 31.6C295.68 32.6933 296.04 33.88 296.04 35.16V37.08C296.04 38.92 296.24 40.1733 296.64 40.84C297.04 41.5067 297.76 41.84 298.8 41.84H300.32V43H296.44Z" fill="#7098DA"/>
</svg>
